<svg viewBox="0 0 687.14 382.41" xmlns="http://www.w3.org/2000/svg"><path d="m430.76 124-3.54-19.85-7.68-43.08q-3.69-20.64-7.37-41.3l-2.17-11.96c-.15-.82-.32-1.64-.44-2.47-.41-2.73-1.87-5-4.88-5.18-4.62-.34-9.38 0-14 0h-161.45c-5.17 0-10.41-.23-15.58 0-3.89.17-5.52 3.37-4.92 6.75l1.86 10.43 7.09 39.66 7.84 44c1.37 7.71 3 15.41 4.13 23.16.51 3.47 2.73 5.19 6.09 5.19h188.45c3.3 0 6.38-1.25 6.61-5.13a.48.48 0 0 0 -.04-.22z" fill="#003773"/><path d="m423 128.35h-187.29c-.3 0-.61 0-.91 0-3-.17-3.84-2.45-4.27-4.94q-.76-4.34-1.55-8.65-3.31-18.65-6.64-37.27l-7.83-43.88q-2.41-13.56-4.84-27.13a4.33 4.33 0 0 1 4.46-5.34h6.14 180.8a15.59 15.59 0 0 1 4.73.25c2.91 1 3.05 5.41 3.53 8.1l5.7 32q4 22.29 8 44.59l5.94 33.3c.29 1.62.57 3.24.86 4.87-.29 4.19-3.83 4.1-6.83 4.1z" fill="#f1f2f2"/><path d="m424.66 120.14c-.27 3.92-3.64 3.79-6.43 3.79h-177.71c-.4 0-.8 0-1.2 0-2.69-.15-3.63-2-4-4.3-.41-2.48-.9-4.95-1.35-7.42q-3.15-17.21-6.28-34.36-3.79-20.85-7.58-41.63l-4.68-25.69c-.51-2.77 1.2-4.9 4.21-5h5.75 171.41c1.25 0 2.52-.07 3.77 0 3.83.21 4 4.13 4.5 7.07l5.34 29.31q3.82 21 7.66 42l5.73 31.51c.29 1.58.57 3.16.86 4.72z" fill="#fff"/><path d="m494.68 54.29a11.07 11.07 0 0 0 -2.46.31c.34-6 0-12.56-2.86-18a11.46 11.46 0 0 0 -3.69-4.47c.83-.14 2.23-.35 3.89-.47a.51.51 0 0 0 .08.51c4.87 5.89 5.89 14.83 5.04 22.12z" fill="#0076f5"/><path d="m492.22 54.6c-.32.08-.66.17-1 .29a10.92 10.92 0 0 0 -2.52 1.25s1.36-5.65-2-8.67a17.14 17.14 0 0 1 -10.7 2.24s-7.56-1.42-10.73-2.86c0 0-5.13-2.67-7.33-5.74 0 0-2.26-3.69-.27-5.8 0 0 2.45-5.09 11.4-3.33 0 0 8 3.1 15.74.31 0 0 .3-.07.83-.16a11.46 11.46 0 0 1 3.69 4.47c2.91 5.4 3.23 11.97 2.89 18z" fill="#39b3a4"/><path d="m511.7 66.58s-3.7 10.58-7.7 14.13c0 0-6.24-3.14-10.15-7.44a12.91 12.91 0 0 0 6.15-2.22s5.67-4 3.3-10.54c0 0-2.88-5.57-7.59-6.18a7.3 7.3 0 0 0 -1 0c.85-7.28-.17-16.23-5-22.12a.51.51 0 0 1 -.08-.51l.9-.05c3.73-.17 8.43.21 11.24 2.7a30.89 30.89 0 0 1 3.8 5.87 52.93 52.93 0 0 1 6.6 13.71s1.06 8.32-.47 12.65z" fill="#39b3a4"/><path d="m453.23 175.77-23-40.06 11.77-10.78 16.67-15s10.44-9.87 15.93-12.34c0 0 9.2-5.6 16.14-6.53l.49-.45 6.77-1.72s8.8 11.69 10.1 16.14c0 0 8.88 15.7 11 23.15 0 0 8.33 19.67 7 33.88 0 0-14.25 7.37-22.83 20.78 0 0-5.93 9.6-6.4 10.47l-6.8 14.19s-5.73 13.6-7.67 14.54h-46.4s4.26-9.27 5.16-13c0 0 4.36-20.86 4.13-26.43z" fill="#f1f2f2"/><path d="m481.9 222-108.39.26s-39.27 8.27-45.47 38.27c0 0-3.2 16.2 4 32.4l28.4 72-3.44 11.39 36.29-22.1-2.34-12.86 31.5 25.4.3 13.16 29.79-36.66-42.69-50.89a40.15 40.15 0 0 1 -10.95-2.1s-9.13-2.52-10.44-10.79l-.26-3.9s2.65-13.48 12.18-18l3.07-1.93s6-2.54 8.26-3.14l15.6-3.93 17.69-4.58s13.33-3.68 17-6.13c0-.03 15.83-7.17 19.9-15.87z" fill="#0076f5"/><path d="m357.47 276.08s22.25 2.15 30.31 1l.09-1.52z" fill="#00529e"/><path d="m497.18 87.38.8 1.51-14.7 3.86c1-2-.7-7.12-.7-7.12l-2.2-.6-3.57-2.1c-4.14-2.8-7.81-12.73-7.81-12.73-.75-.13-1.14-1-1.3-1.48a.42.42 0 0 1 .18-.49 6.26 6.26 0 0 0 1.47-1.23c1.32-1.57 1.18-3.81.75-5.69a32.34 32.34 0 0 1 -.33-12.8 18.33 18.33 0 0 0 10.61.8 30.31 30.31 0 0 0 7.05-1.66 10.42 10.42 0 0 1 1.39 8 8.64 8.64 0 0 1 -.26 1c0 .23-.06.45-.08.67a8.6 8.6 0 0 0 -2.7 6.27 8.86 8.86 0 0 0 7.08 8.57c.31.39.63.77.95 1.13a30.29 30.29 0 0 0 9.83 7.14 32.32 32.32 0 0 1 -6.46 6.95z" fill="#f9dcc4"/><path d="m197 171.68c-6.15 12.76-14.28 24.87-19.47 38.21-5.56 14.27-7.8 30-5.37 45.08 0 0 2.1 11.7 9.9 27.9 4.31 8.94 8.68 17.86 12.74 26.92 3.84 8.57 7.45 18.93 9 28.35 1.65 10.2 1.42 19.69 1.77 30 0 .84 0 11.17.07 12.59h-3.55l-.8-37.57-2-10.24-5.2-14.85-14.33-30.17c-10.29-22.21-16.07-45.34-8.9-69.51 5-16.8 15.1-31.52 22.72-47.3h3.69c-.09.19-.19.39-.27.59z" fill="#f1f2f2"/><path d="m279.64 158.47s-4.89-4.37 12.76-14.37c0 0 7.81-1.11 10.48 3.58 0 0 7.52 5.63 10.39 5.76 0 0 9.27-.17 10.27 1.63 0 0-1.5 5.17-11.8 4z" fill="#f1f2f2"/><path d="m90.82 159.58h27.63l230.55-.52v9.58h-253.44a6.16 6.16 0 0 1 -4.65-2c-1.26-1.44-2.04-3.71-.09-7.06z" fill="#d1d3d4"/><path d="m645.45 328.32c-1.43.34-4.28-1.19-5.4-1.9a5.47 5.47 0 0 1 -2.21-6.44 3.82 3.82 0 0 1 2.71-2.32c1-.23 2.23 0 2.17-1.39-.06-1.61-1.25-3-2.22-4.14-2.76-3.41-5-7.5-5.47-11.93-.36-3.51.52-7.39 4.72-7.56a23.37 23.37 0 0 1 6.38 3.22s-4.4-5.62 2.34-9.34c0 0 10.16-5 12.93 10.34 0 0-1.31 6.42-2.08 7.58 0 0 7-3.07 6 6.34 0 0 4.76-3.52 3.53 8.58 0 0-2.79 6.57-8.11 5.79z" fill="#39b3a4"/><path d="m674.3 96h-88.12a.5.5 0 0 0 0 1h88.12a.5.5 0 0 0 0-1z" fill="#d1d3d4"/><path d="m160.26 65.92a57.09 57.09 0 0 0 -84.59-50 57.57 57.57 0 0 0 -29.52 47.5c-.44 10.1 0 20.29 0 30.4 0 11.46-.3 23 0 34.42v.64a.51.51 0 0 0 .5.5h113.11a.51.51 0 0 0 .5-.5v-62.96a.5.5 0 0 0 -1 0v62.93l.5-.5h-113.16l.5.5v-61.77c0-17 6.95-33.15 20.09-44.17a56.07 56.07 0 0 1 91.55 35.31 58.24 58.24 0 0 1 .52 7.7.5.5 0 0 0 1 0z" fill="#d1d3d4"/><path d="m102.68.64v132.93a.5.5 0 0 0 1 0v-132.93a.5.5 0 0 0 -1 0z" fill="#d1d3d4"/><path d="m36.71 78h132.94a.5.5 0 0 0 0-1h-132.94a.5.5 0 0 0 0 1z" fill="#d1d3d4"/><path d="m668.32 329.23-22.55 1.77-5.44.42c-1.23.1-2.82-.05-3.94.53-1.77.9-1.12 3-.66 4.47 4.33 14.48 8.82 28.92 13.23 43.37.19.62 1.16.36 1-.26l-11.76-38.44c-.5-1.65-1-3.3-1.51-4.95a5.1 5.1 0 0 1 -.5-2.12c.34-1.32 1.48-1.38 2.58-1.48 3.24-.3 6.48-.51 9.72-.76l19.83-1.55c.64-.05.65-1.05 0-1z" fill="#d1d3d4"/><path d="m645.14 327.75c-3.51 1.9-7.76-.73-9.18-4.08s.8-8 4.91-7.05a.51.51 0 0 0 .49-.84c-3.75-4.16-8.45-9.34-8.24-15.35.08-2.53 1.14-5.51 3.58-6.67 3.34-1.59 6.63 1.24 8.94 3.33a.5.5 0 0 0 .71-.7 6 6 0 0 1 .59-7.86 7.48 7.48 0 0 1 8.7-.75c6 3.49 5.52 11.31 2.87 16.73a.5.5 0 0 0 .69.68 4 4 0 0 1 5.25 5.58c-.24.41.25 1 .68.68 2.73-1.82 3.12 3.2 3.16 4.32a12 12 0 0 1 -.5 4.21c-1 3-3.78 5.34-7 4.75-.62-.12-.89.85-.26 1 4.68.86 8.11-3.08 8.71-7.41.3-2.22-.24-10.57-4.56-7.69l.68.68a5 5 0 0 0 -6.62-6.94l.69.69c1.81-3.72 2.8-8 1.46-12a10.27 10.27 0 0 0 -7-7c-3-.76-6.54.08-8.4 2.68a6.93 6.93 0 0 0 .15 8.4l.71-.7c-2.34-2.12-5.25-4.59-8.65-4-2.69.47-4.46 2.85-5.17 5.35-2.06 7.18 3.7 13.82 8.12 18.74l.49-.84c-4.37-1-7.59 3.5-6.44 7.52 1.26 4.4 6.63 7.78 10.94 5.44.57-.3.07-1.17-.5-.86z" fill="#2da08f"/><path d="m619.57 52h-27.15a.51.51 0 0 0 -.5.5v42.44a.51.51 0 0 0 .5.5h27.15a.46.46 0 0 0 .34-.14.46.46 0 0 0 .13-.34v-42.49a.51.51 0 0 0 -.47-.47z" fill="#d1d3d4"/><path d="m592.92 53h26.15v41.44h-26.15z" fill="#f1f2f2"/><path d="m630.24 59.07h5v37.39h-5z" fill="#f1f2f2"/><path d="m635.22 65.24h5v31.22h-5z" fill="#f1f2f2"/><path d="m640.23 96v-4h31.23v4z" fill="#f1f2f2"/><path d="m635.22 96h-5l.5.5v-37.63l-.5.5h5l-.5-.5v37.59a.5.5 0 0 0 1 0v-37.59a.5.5 0 0 0 -.5-.5h-5a.51.51 0 0 0 -.5.5v37.59a.51.51 0 0 0 .5.5h5a.5.5 0 0 0 0-.96z" fill="#d1d3d4"/><path d="m640.21 96h-5l.5.5v-31.32l-.5.5h5l-.5-.5v31.28a.5.5 0 0 0 1 0v-31.28a.51.51 0 0 0 -.5-.5h-5a.51.51 0 0 0 -.5.5v31.28a.51.51 0 0 0 .5.5h5a.5.5 0 0 0 0-.96z" fill="#d1d3d4"/><path d="m640.71 95.91v-4.26l-.5.5h31.27l-.5-.5v4.26l.5-.5h-31.27a.5.5 0 0 0 0 1h31.27a.51.51 0 0 0 .5-.5v-4.26a.51.51 0 0 0 -.5-.5h-31.27a.51.51 0 0 0 -.5.5v4.26a.5.5 0 0 0 1 0z" fill="#d1d3d4"/><path d="m615.31 62.36a.35.35 0 0 0 0-.15 4 4 0 0 0 -8 .15 3.93 3.93 0 0 0 .31 1.49 4 4 0 0 0 7.65-1.34.38.38 0 0 0 .04-.15z" fill="#2da08f"/><path d="m608.34 62.36c0-3.86 5.77-3.83 6 0-.23 3.82-6 3.85-6 0z" fill="#39b3a4"/><path d="m618.35 78.82a.33.33 0 0 0 0-.24v-24.58a.51.51 0 0 0 -.5-.5h-23.71a.51.51 0 0 0 -.5.5v24.67a.49.49 0 0 0 0 .24v14.51a.51.51 0 0 0 .5.5h23.71a.46.46 0 0 0 .34-.14.43.43 0 0 0 .14-.34zm-23.71-24.33h22.71v23.17l-6.27-5.21a.52.52 0 0 0 -.7 0l-3.27 2.71-4.32-3.59a.53.53 0 0 0 -.71 0l-7.44 6.18zm0 24.55 7.8-6.47 7.94 6.6c.49.4 1.2-.3.7-.71l-3.19-2.65 2.84-2.36 6.62 5.5v14h-22.71z" fill="#d1d3d4"/><path d="m465.82 49.46c0 1.84.11 3.68.27 5.5.3 3.46 1.49 7-.1 10.36-.86 1.79-3.26 3.43-1.8 5.47a4.33 4.33 0 0 0 1.73 1.41 3.29 3.29 0 0 0 .7.19 1.63 1.63 0 0 1 .62.08.93.93 0 0 1 .31.42c.1.24.17.49.26.73v.11a25.1 25.1 0 0 0 1.44 2.89 20.66 20.66 0 0 0 6 6.62 19.27 19.27 0 0 0 13.2 2.92c.63-.07.64-1.07 0-1-6.27.69-12.19-1.2-16.3-6.1a20.11 20.11 0 0 1 -4-7.27.5.5 0 0 0 -.49-.36c-1.82.14-3.17-1.2-2.44-3.08.37-1 1.26-1.85 1.71-2.82a9.74 9.74 0 0 0 .81-5.05c-.37-3.69-1-7.3-1-11a.5.5 0 0 0 -.92-.02z" fill="#003773"/><path d="m488.82 55.64a10.15 10.15 0 0 0 -1.86 1.8c-5 6.21-.49 15.29 6.85 15.83a9.27 9.27 0 0 0 2.45-.12 9.87 9.87 0 0 0 8-9.55v-.06c-.26-7.94-9.42-12.31-15.44-7.9z" fill="#003773"/><path d="m494.52 72.31a8.27 8.27 0 0 1 -1.66-.17 8.86 8.86 0 0 1 -7.08-8.57 8.6 8.6 0 0 1 2.7-6.27 8.75 8.75 0 0 1 6-2.47 8.74 8.74 0 1 1 0 17.48z" fill="#0076f5"/><g fill="#003773"><path d="m492.22 54.6v.16c0 .6-.9.64-1 .13a.27.27 0 0 1 0-.13c.34-5.89.11-12.32-2.71-17.66a10.33 10.33 0 0 0 -3.51-4.19.45.45 0 0 1 -.19-.62.48.48 0 0 1 .69-.24l.14.08a11.46 11.46 0 0 1 3.69 4.47c2.91 5.4 3.23 11.97 2.89 18z"/><path d="m495.67 54.33c-.07.63-1.07.63-1 0 .85-7.28-.17-16.23-5-22.12a.51.51 0 0 1 -.08-.51.46.46 0 0 1 .79-.2l.11.15c4.93 6.08 6.07 15.16 5.18 22.68z"/><path d="m476.67 58.92c-1.86-1.86-4.63-1.61-6.67-.23-.53.36 0 1.23.51.87 1.66-1.13 3.91-1.48 5.45.07.45.46 1.16-.25.71-.71z"/><path d="m471.47 75.88c2 1.88 4.85 1.62 7 .24.54-.35 0-1.21-.5-.86-1.76 1.12-4.15 1.48-5.79-.08-.47-.45-1.18.26-.71.7z"/><circle cx="471.44" cy="63.57" r=".96"/><path d="m294.63 124.43a50.63 50.63 0 0 1 0-9.77c.1-.63-.87-.9-1-.27a51.81 51.81 0 0 0 0 10c0 .64 1 .64 1 0z"/><path d="m351.94 146-1.06-.4-2.25-16.6c-.08-.63.88-.9 1-.27z"/><path d="m327 136.49-1.05-.37-1-7.14c-.08-.63.88-.9 1-.27z"/><path d="m440.9 137.65 24.86-21.31c.49-.42-.22-1.12-.7-.71l-24.86 21.31c-.49.42.22 1.13.7.71z"/><path d="m349.48 170.71h-227.16c-9.51 0-19.09.32-28.6 0-7.35-.25-7.29-10.92 0-11.15h2.75 253l-.49-.5v12.15a.5.5 0 0 0 1 0v-12.15a.5.5 0 0 0 -.5-.5h-248.82c-2.5 0-5.08-.2-7.58 0a6.58 6.58 0 0 0 .56 13.13h1.89 254a.5.5 0 0 0 -.05-.98z"/><path d="m193.32 171-15.32 28.11c-10.24 18.78-13.69 40.43-8.75 61.35 2.93 12.43 9.16 24.16 14.36 35.77s11.51 23.5 14.84 35.91c4.06 15.14 3.11 30.9 3.11 46.42v1.52a.5.5 0 0 0 1 0v-15.7c0-7.05.11-14.06-.85-21.06a95.62 95.62 0 0 0 -7.71-26.32l-6.45-14.4c-4.57-10.2-9.56-20.31-13.67-30.7a84.61 84.61 0 0 1 4.35-71.06c5.13-9.48 10.32-18.92 15.48-28.39l.51-.94c.31-.56-.56-1.07-.87-.5z"/><path d="m202.2 171-15.35 28.15c-10.24 18.78-13.69 40.43-8.75 61.35 2.93 12.43 9.17 24.16 14.37 35.77s11.5 23.5 14.83 35.91c4.06 15.14 3.11 30.9 3.11 46.42v1.52a.5.5 0 0 0 1 0v-15.7c0-7.05.11-14.06-.84-21.06a96 96 0 0 0 -7.73-26.36l-6.45-14.4c-4.57-10.2-9.56-20.31-13.67-30.7a84.61 84.61 0 0 1 4.35-71.06c5.13-9.48 10.32-18.92 15.48-28.39l.51-.94c.31-.56-.56-1.07-.86-.5z"/></g><path d="m652.7 380-13.27-43.32a2 2 0 0 1 1.77-1.71l28.48-2.12s1.77-.17 1.94 1.06l-3.33 46.09z" fill="#f1f2f2"/><path d="m686.66 380.23h-658.32c-8.89 0-17.81-.21-26.69 0h-1.17a.5.5 0 0 0 0 1h658.32c8.89 0 17.81.21 26.69 0h1.17a.5.5 0 0 0 0-1z" fill="#003773"/><path d="m289.3 142.31c-.09-.18 1.22-1.29 1.33-1.39 6.42-5.64 17.09-3.75 24.67-2.12 9.75 2.11 18.48 6.87 27.49 10.95q9.22 4.19 18.62 8c5.94 2.39 12.31 5.57 18.76 6.14 10.86 1 22.92.58 31.85-6.2l18.63-14.13 2.5-1.9 20.08 34.55-20.06 14.2s-16.34 10.59-32.27 7.03c0 0-11.74-1.17-25.79-8.4 0 0-19.26-10.31-30.4-18.33l-16.34-12.8s-4.08-4-9.2-4.14c0 0-10.33-.73-15.19-5.8 0 0-4.82-5.21-9.67-4 0 .03-4.05.19-5.01-1.66z" fill="#f9dcc4"/><path d="m292.4 144.1a23.93 23.93 0 0 0 -11.69 7.82c-1.24 1.61-4.07 5.7-1.38 7.3a5.89 5.89 0 0 0 2.92.34h30.27c4.58 0 9.5.4 11.67-4.72.25-.59-.61-1.1-.86-.5-1.92 4.5-6 4.22-10 4.22h-31.73a4.71 4.71 0 0 1 -.92 0c-2.5-.62-1-3.21-.27-4.42 2.53-4.38 7.47-7.61 12.26-9.08a.5.5 0 0 0 -.27-1z" fill="#003773"/><path d="m429.86 135.85 20.19 35.49 2.86 5a.5.5 0 0 0 .86-.5l-20.19-35.49-2.85-5a.5.5 0 0 0 -.87.5z" fill="#003773"/><path d="m433.15 141.63-4.81 3.65 21.79 32.65 2.58-1.91z" fill="#e2bda3"/><path d="m403.47 291s-6.63-20.76 14.17-26c13.16-3.3 26.73-4.87 39.71-8.94a67.76 67.76 0 0 0 32-21.17 146.48 146.48 0 0 0 23.11-37.4c4.82-11.25 10.73-22.61 19.26-31.54 2.51-2.63 6.67-7 10.49-7.6 0 0 24.57-2.68 26.2 15.37.43 4.72.16 5.4.16 5.4a304.46 304.46 0 0 1 -7.36 36.13s-11 32.43-23.16 48.5c0 0-10.54 26.43-44.94 28.33.02-.01-59.8 6.09-89.64-1.08z" fill="#f1f2f2"/><path d="m388.35 275.08h-30.88a.5.5 0 0 0 0 1h30.88a.5.5 0 0 0 0-1z" fill="#003773"/><path d="m386.58 277.24s-.88 9.78 9.92 14.49a63.86 63.86 0 0 0 14.74 2.57l-1.4-1.93s-6.94-.67-8.14-1.4c0 0-5.13-.54-6.73-2.94a10.59 10.59 0 0 1 -6.4-7.8l-.32-3.73z" fill="#00529e"/><path d="m390.31 341.42 16.6 13.37 11.15 9 3.29 2.65c.25.21.53.4.77.62s.05-.5 0 .13c-.36 4.24 0 8.65 0 12.91a.51.51 0 0 0 .86.35l26.35-32.17 3.69-4.51a.51.51 0 0 0 0-.71l-37.67-44.86-5.13-6.1c-.41-.49-1.28 0-.86.52l37.64 44.83 5.29 6.3v-.75l-26.29 32.21-3.69 4.51.85.36v-12c0-.82.1-1.23-.39-1.81a17.33 17.33 0 0 0 -2.54-2l-22.31-18-6.92-5.56c-.5-.4-1.21.31-.71.71z" fill="#003773"/><path d="m376.97 277.43 13.97 63.94-15.63-64.27z" fill="#00529e"/><path d="m445.26 182.64-.69 7.67 43.2-37-.73-1.84z" fill="#d1d3d4"/><path d="m444.71 182.05a119.94 119.94 0 0 1 -1.5 14.15c-1.39 8.81-3.5 17.79-7.75 25.7-.31.57.56 1.07.86.51 4.29-8 6.45-17 7.86-25.94a122.63 122.63 0 0 0 1.53-14.42c0-.65-1-.65-1 0z" fill="#003773"/><path d="m491.11 91.53a46.74 46.74 0 0 0 -12.69 4.47c-8.13 4.24-15 10.36-21.77 16.45-7.41 6.68-14.7 13.49-22.16 20.1a249.1 249.1 0 0 1 -21.91 17.95 40.57 40.57 0 0 1 -22.27 7.74c-8.9.2-16.51-3-24.62-6.05l-13.61-5.08-1.05-.4-8.37-3.12-1.05-.4-3-1.11c-2.09-.79-4.22-1.51-6.25-2.45-1.73-.8-3.5-1.52-5.29-2.15q-.52-.19-1-.36a59.43 59.43 0 0 0 -19.15-3.12 40.73 40.73 0 0 0 -12.47 1.59 14.74 14.74 0 0 0 -2.82 1.38 7.54 7.54 0 0 0 -3.08 2.76c-1 2.17 1.83 3.43 3.56 3.59s3.6-.25 5.38.07a10.12 10.12 0 0 1 4.21 2c1.51 1.12 2.84 2.46 4.35 3.58a22 22 0 0 0 6.43 3.14 26.63 26.63 0 0 0 7.58 1.1 9 9 0 0 1 4.73 1.33 68 68 0 0 1 5.45 4.29c1.89 1.48 3.78 3 5.69 4.42 15.3 11.68 31.84 23.1 50 29.86 9 3.34 18.78 5.43 28.36 4 8.43-1.23 16-5.29 22.93-10 8.24-5.62 16.18-11.71 24.24-17.6l25.23-18.44c.52-.38 1 .49.51.87q-6.21 4.51-12.39 9l-26.34 19.24c-7.33 5.35-14.6 11.09-23 14.71-17.24 7.43-35.75 1.95-51.71-6.12a216.85 216.85 0 0 1 -25.3-15.21c-4.23-2.91-8.38-5.94-12.46-9-3.84-2.91-7.47-6.28-11.46-9-2.47-1.68-5.24-1.19-8-1.54a25.21 25.21 0 0 1 -6-1.56 22 22 0 0 1 -5.42-3c-1.49-1.16-2.82-2.5-4.36-3.58a9.3 9.3 0 0 0 -6.13-1.65 10.38 10.38 0 0 1 -4.73-.5c-2-.88-3.28-2.83-2-4.85 1.38-2.26 4.47-3.84 7-4.51a50 50 0 0 1 14.1-1.31 59.62 59.62 0 0 1 11.89 1.57 52.51 52.51 0 0 1 5 1.49l1.05.37c2.31.84 4.58 1.79 6.89 2.76 2.08.88 4.26 1.59 6.38 2.39l1.24.46 1.05.4 8.37 3.12 1.06.4 16.55 6.19c2.7 1 5.38 2.08 8.1 3a38.81 38.81 0 0 0 21.38 1c9.5-2.32 17.07-8.6 24.46-14.67 7.9-6.48 15.47-13.36 23-20.26 13.27-12.13 27-27.16 45.41-30.77.65-.07.91.9.28 1.02z" fill="#003773"/><path d="m474.32 222c5.15.07 7.63-6.58 9.51-10.2 8.23-15.94 16.21-33.5 30.28-45.35.65-.54 1.31-1.08 2-1.59 3-2.31 6.4-4.47 10.18-5.1v2.59s-3.84 1.07-12 8.07c0 0-9.3 9-11.87 13.8 0 0-8.19 12.38-10.19 18.47 0 0-6 15.66-9.39 18.59l-.35.74c-2.76-.02-5.49.04-8.17-.02z" fill="#d1d3d4"/><path d="m388.84 279c-.74-9.16 5.1-16.91 12.61-21.44 6.89-4.16 14.75-5.93 22.5-7.74 16.32-3.8 33.23-7.31 47.41-16.74a46.05 46.05 0 0 0 15.45-17.33c3.57-6.73 6.12-13.94 9.62-20.7 6.78-13.11 16.68-25.75 30.15-32.45a40.88 40.88 0 0 1 21.85-4.21c5.72.51 11.92 2.15 15.91 6.56 5.57 6.17 3.94 14.79 2.72 22.23a221.4 221.4 0 0 1 -6.21 27.39c-4.81 16.18-12.14 31.51-20.81 46-7.26 12.12-16.88 24.62-31.26 28.22-19.49 4.86-39.72 5-59.68 4.81-10-.1-19.94-.32-29.88-1-5-.35-10-.69-14.94-1.46a25.64 25.64 0 0 1 -9.65-3.34 12 12 0 0 1 -5.79-8.76c-.08-.63-1.08-.64-1 0 .84 6.71 6.32 10.54 12.45 12.26 4.13 1.15 8.5 1.42 12.75 1.81 5.15.46 10.32.78 15.48 1 10.57.46 21.16.58 31.74.57a247.35 247.35 0 0 0 31.74-1.85c8.48-1.09 17.69-2.19 25.33-6.31 6.41-3.45 11.67-8.7 16.11-14.4a136.16 136.16 0 0 0 12-19.07 221.05 221.05 0 0 0 11.14-23 190.18 190.18 0 0 0 8.74-28.59q1.65-7.29 2.83-14.69c.68-4.2 1.52-8.5 1.05-12.77-1.52-13.75-16.21-17.63-28-16.56-15 1.36-27.53 11.16-36.48 22.76a98 98 0 0 0 -11.77 19.9c-3.44 7.68-6.46 15.71-11.53 22.51-5.54 7.41-13.86 12.32-22.21 16s-17.45 6.08-26.43 8.21c-14.49 3.44-34 5.61-42.1 20.08a21.52 21.52 0 0 0 -2.84 12.1c.05.65 1.05.65 1 0z" fill="#003773"/><path d="m482.3 221.65h-107.54a69.73 69.73 0 0 0 -20.33 3.18c-13.24 4.07-25 12.51-30.86 25.33a49.66 49.66 0 0 0 -3.38 30.48 69.23 69.23 0 0 0 4.61 13.46l12.14 28.49 14.15 33.19c1.06 2.51 2.18 5 3.21 7.54.21.53.1-.31 0 0-.24.82-.5 1.63-.76 2.45l-2.78 8.93-1.63 5.3a.5.5 0 0 0 .73.56l38.67-22.76 5.48-3.22a.52.52 0 0 0 .23-.57l-6.24-26.5-10.08-42.38-2.3-9.69c-.15-.62-1.11-.36-1 .27l13.08 55 3.61 15.29 1.2 5a12 12 0 0 0 .67 2.81c.07.12 0 .29.1.41-.27-.53.61-.63-.26-.27a30.27 30.27 0 0 0 -3.55 2.09l-13.77 8.1-26.34 15.51.73.56 4.45-14.29c.29-.92.87-2 .69-2.95a12.31 12.31 0 0 0 -.92-2.15l-11.75-27.57-14.16-33.25c-1.2-2.79-2.38-5.59-3.58-8.39a52.47 52.47 0 0 1 -4.5-25.07 45.41 45.41 0 0 1 10.56-26 47.8 47.8 0 0 1 16.46-12 66.77 66.77 0 0 1 26.59-5.91c15.41-.19 30.83 0 46.24 0h62.13a.5.5 0 0 0 0-1z" fill="#003773"/><path d="m334.87 5.53s-76 25.45-70.43 119h-24.06s-4.6 1.48-5.73-5l-15.87-87.15-3.78-21.26s-1.47-6.45 5.73-6z" fill="#f1f2f2" opacity=".71"/><path d="m308.39 85.48s9.25 5.55 18.1.4l-.35 14.74 2.25 23.66-8.84.2s.6-9.45 0-13.15l-2.46-13.85s-1.4-4.1-3.7-6.3z" fill="#39b3a4"/><path d="m306.12 83.91v-23.91s-3.38.85-4.68-1.55c0 0-2.75-5.81 3.85-6 0 0 2.8.23 3.65 3.73v-8.5a5.12 5.12 0 0 0 5 1.9 11.13 11.13 0 0 0 3.2-1.35 5.54 5.54 0 0 0 5.38 1.3s1.9-1 2.17-1.62a4.5 4.5 0 0 0 5 .17l1.38-.7v13.75s-.05 4.65-3.45 7.07c0 0-2.65 1.91-4.35 2v16.8s-2.69 1.42-7.5.8c-.03.03-6.13-1-9.65-3.89z" fill="#f9dcc4"/><path d="m321.46 56.75a3.33 3.33 0 0 0 .47 2.24c.16.27.35.49.53.74.32.41.16 0 .16.15 0 .58-.7 1.19-1.06 1.54s.25 1.15.71.7 1.59-1.57 1.31-2.53c-.14-.48-.63-.79-.86-1.23a2.52 2.52 0 0 1 -.3-1.34c.13-.63-.83-.9-1-.27z" fill="#003773"/><path d="m318.34 64.65c2.38-.11 4.77.09 7.15 0l-.49-.65c-.48 1.39-1.32 3.09-3 3.18-1.33.07-3-1.68-3.15-3-.06-.63-1.06-.64-1 0 .18 1.75 2 3.87 3.73 4 2.38.22 3.74-2 4.4-3.9a.51.51 0 0 0 -.48-.64c-2.38.09-4.77-.11-7.15 0-.65.05-.65 1.05-.01 1.01z" fill="#003773"/><path d="m329.51 52.62a3.77 3.77 0 0 0 -4.86-.08c-.52.37 0 1.24.51.86a2.82 2.82 0 0 1 3.64-.08c.47.45 1.18-.26.71-.7z" fill="#003773"/><path d="m319.24 52.62a3.75 3.75 0 0 0 -4.85-.08c-.52.37 0 1.24.5.86a2.83 2.83 0 0 1 3.65-.08c.46.45 1.17-.26.7-.7z" fill="#003773"/><circle cx="316.76" cy="57.92" fill="#003773" r=".96"/><circle cx="327.03" cy="57.92" fill="#003773" r=".96"/><path d="m324.44 73v11a.5.5 0 0 0 1 0v-11a.5.5 0 0 0 -1 0z" fill="#003773"/><path d="m268.08 124.56c2.07-8.48 4.33-17.43 9.07-24.87s12.64-12.43 20.92-15.53c.84-.32.84-.33 1.69-.61s2.16-.83 3.16-1.21c.27-.1.73-.35 1.07-.2a3.9 3.9 0 0 1 .79.67l4.46 4.76 4.14 4.43a14.18 14.18 0 0 1 3.29 6.23 75.16 75.16 0 0 1 2.3 26.2c-.06.64.94.64 1 0a76.28 76.28 0 0 0 -.74-19.09c-.67-4-1.31-9.24-3.86-12.58-3.13-4.12-7.14-7.73-10.68-11.5a.48.48 0 0 0 -.48-.13c-9.55 2.69-19.34 7-25.7 14.94s-9 18.51-11.39 28.23c-.15.62.81.89 1 .26z" fill="#003773"/><path d="m354.48 124.3c-.79-4.94-1.77-9.84-2.76-14.74a74.19 74.19 0 0 0 -2-8.87c-2.56-7.62-9.78-12.79-16.71-16.18a44.26 44.26 0 0 0 -5.9-2.47.51.51 0 0 0 -.63.49c-.37 4.33-1 8.71-1 13.07a215.92 215.92 0 0 0 2.22 29c.09.64 1.05.37 1-.26a210.47 210.47 0 0 1 -2.19-28.92c0-4.28.61-8.59 1-12.85l-.63.48a45 45 0 0 1 14 7.54 23.52 23.52 0 0 1 7.83 10.19 61.47 61.47 0 0 1 1.84 8.17c1.06 5.2 2.1 10.41 2.94 15.65.11.63 1.07.37 1-.26z" fill="#003773"/><path d="m306.26 84.39a18 18 0 0 0 20.74 1.72c.54-.34 0-1.2-.51-.87a17 17 0 0 1 -19.49-1.56c-.49-.41-1.2.3-.7.71z" fill="#003773"/><path d="m326.53 101.57c2.51-2 5.83-4 7-7.13a11.28 11.28 0 0 0 .31-1.89 2.73 2.73 0 0 1 .6-1.19l1.8-2.47c.38-.52-.48-1-.86-.5-1 1.37-2.47 2.69-2.54 4.38-.14 3.63-4.46 6.09-7 8.09-.5.4.21 1.1.71.71z" fill="#003773"/><path d="m296.17 84.58c1.92 2 3.93 3.83 5.89 5.75a13.58 13.58 0 0 1 2.74 3.22c.68 1.34.58 2.92 1.19 4.25s2 1.63 3.39 2q4.15 1.14 8.41 1.89c.63.11.9-.86.26-1q-3.85-.67-7.63-1.68a11.57 11.57 0 0 1 -2.45-.68c-1.65-.9-1.42-3.26-2.06-4.77a13.46 13.46 0 0 0 -3.36-4.19c-1.89-1.84-3.83-3.65-5.67-5.54-.45-.46-1.15.25-.71.71z" fill="#003773"/><path d="m309.77 61.08s-2 12.65 13.47 16.12v-4.42s-10.53 1.29-13.47-11.7z" fill="#e2bda3"/><path d="m332.22 60.92a10.73 10.73 0 1 1 -21.45.16.5.5 0 0 0 -1 0c.23 9.23 10.78 15.09 18.52 9.54 5.84-4.18 4.93-11.13 4.93-17.41v-7.16a.5.5 0 0 0 -1 0v.71" fill="#003773"/><path d="m342.38 111s6.21 6.31 3.06 13h-1.68s2.85-7.1-1.38-13z" fill="#f1f2f2"/><path d="m341.83 111.71a14.74 14.74 0 0 1 1.42 12.59c-.2.61.76.87 1 .26a15.63 15.63 0 0 0 -1.52-13.35c-.35-.54-1.22 0-.86.5z" fill="#003773"/><path d="m425.55 120-3.45-18.94-7.44-40.86-7-38.35q-1-5.3-1.93-10.6c-.12-.62-.25-1.24-.34-1.87-.4-2.7-2.07-4.59-4.92-4.72-4.67-.22-9.41 0-14.09 0h-152.66c-4.85 0-9.77-.22-14.62 0-3.67.17-5.28 3.12-4.7 6.33s1.21 6.66 1.82 10l6.87 37.74q3.76 20.61 7.51 41.23c1.24 6.77 2.72 13.56 3.71 20.38.51 3.46 3 4.71 6.13 4.71h178.85c3.11 0 6.06-1.15 6.29-4.81a.73.73 0 0 0 -.03-.24zm-7.32 3.91h-177.71c-.4 0-.8 0-1.2 0-2.69-.15-3.63-2-4-4.3-.41-2.48-.9-4.95-1.35-7.42q-3.15-17.19-6.28-34.34-3.79-20.85-7.58-41.63l-4.68-25.69c-.51-2.77 1.2-4.9 4.21-5h5.75 171.41c1.25 0 2.52-.07 3.77 0 3.83.21 4 4.13 4.5 7.07l5.34 29.31q3.82 21 7.66 42l5.73 31.51c.29 1.56.57 3.11.86 4.67-.27 3.97-3.66 3.84-6.43 3.84z" fill="#003773"/><path d="m310.77 27.67a15.94 15.94 0 0 0 -15.26-3.42s-9.73 1.66-11.93 13.93c0 0-1.33 7.2-.8 12 0 0 1 3.84-1.07 6.8 0 0-5.73 7.63.87 13.22a8.72 8.72 0 0 0 6.9 1.31s.5 5 6.83 5.14l5.45-1.4s4.17 1.45 4.68.8l.05-11.12-2.91-1.08s-6.28-2.56-7.27-6.89c0 0-2.87-6.18-1.9-12.18a14.56 14.56 0 0 1 4.34-8.73 15.89 15.89 0 0 1 6-3.69s3.06-4.19 6.02-4.69z" fill="#00529e"/><path d="m306.49 64.93v-4.55s-2.7 0-3.7-.6a4.08 4.08 0 0 1 -.92-6.29s3.62-3.61 6.77 1.44l.3 1.25v-8.5a5.26 5.26 0 0 0 4.5 2s.8.25 3.7-1.45c0 0 3.2 3.35 7.6 0 0 0 4 1.85 6.3-.85 1.63-1.91 1.33-6.47.78-8.73-1.93-8-11.39-12-19-11.35a8.66 8.66 0 0 0 -5.25 2.53 10.94 10.94 0 0 1 -5 3.55 13.75 13.75 0 0 0 -7 7.75s-2.55 6.95 0 13.6c-.03 0 2.92 8.5 10.92 10.2z" fill="#00529e"/><path d="m311.14 27a.48.48 0 0 0 -.19-.26c-7.83-5.58-19.37-4.77-24.8 3.69-3 4.69-3.7 10.43-3.87 15.88-.09 2.8.14 5.64 0 8.44-.09 1.34-.88 1.91-1.56 3a11.43 11.43 0 0 0 -1.53 3.86c-.79 4.25 1.05 9.09 5.46 10.38a9.92 9.92 0 0 0 4.25.08c1.55 4.65 7.25 6.23 11.48 4.35a8.48 8.48 0 0 0 1.28-.7 6.69 6.69 0 0 0 5.33.7v-1a7.43 7.43 0 0 1 -.93.23 5.11 5.11 0 0 1 -3.59-.51 4.42 4.42 0 0 0 1.72-3.34c0-1.74-1.71-3.17-3.34-2.08s-1.34 3.66-.18 5.1c.06.08.14.16.21.24l-.27.17c-3.58 2.06-8.82 1-10.55-3 0-.12-.11-.26-.16-.4 2.15-.61 3.93-1.94 3.61-4.21a2.12 2.12 0 0 0 -3.36-1.42c-1.49 1.06-1.8 3.21-1.48 5a7.48 7.48 0 0 1 -2.79.07c-3.72-.59-5.83-3.9-5.88-7.52a10.13 10.13 0 0 1 1.58-5.48c.58-.94 1.54-1.58 1.69-2.67.43-3.09-.05-6.47.06-9.61.24-6.79 1.47-14.65 7.33-19s13.86-3.52 19.59.43l.23.16c.39.31.79-.2.66-.58zm-10.77 44.39a1.38 1.38 0 0 1 .43-.81 1.62 1.62 0 0 1 1.34-.36c1.38.26 1.14 2 .65 2.91a4.51 4.51 0 0 1 -1.14 1.33l-.14-.15a4.24 4.24 0 0 1 -1.14-2.92zm-10.55-3.72a1.58 1.58 0 0 1 1.62-.91 1.61 1.61 0 0 1 1.18.89c.58 1.27-.75 2.57-1.84 3a4.8 4.8 0 0 1 -1.21.27c0-.41-.11-.78-.09-1.17a5.29 5.29 0 0 1 .33-2z" fill="#003773"/><path d="m299.24 34.83s.78-8.62 11-7.41l-2.42 2.06-3 2.3-1.52 1.4z" fill="#39b3a4"/><path d="m299.75 35.15a11 11 0 0 1 1.47-4c2-3.14 5.42-3.89 8.92-3.26.63.11.9-.85.26-1-3.59-.64-7.21-.05-9.53 3a11 11 0 0 0 -2.12 5.23c-.07.64.93.63 1 0z" fill="#003773"/><path d="m327.93 28.5a18.38 18.38 0 0 0 -14.66-2.29 14.63 14.63 0 0 0 -2.13.77c-.31.13-.63.29-.93.44a20.92 20.92 0 0 0 -3.7 2.47c-1.34 1.08-2.28 2.28-3.94 2.85a10.63 10.63 0 0 0 -3.21 1.82c-5.19 4.25-6.45 11.82-5 18.08a16.47 16.47 0 0 0 11.33 12.43.43.43 0 0 0 .36 0v13.8a.47.47 0 0 0 .93 0v-18.94c0-.27-.3-.57-.59-.45-3.75 1.5-7.35-3.2-3.91-6 2.94-2.37 5.5.78 6.07 3.51a.47.47 0 0 0 .92-.12v-8.05a6.2 6.2 0 0 0 7.6 0 5.48 5.48 0 0 0 1 .71 5.8 5.8 0 0 0 5.13.35 5.07 5.07 0 0 0 1.67-1.23 4.46 4.46 0 0 0 1.2.47c4.6 1 8.3-3.2 8.8-7.42.55-5.3-2.6-10.38-6.94-13.2zm-10.52 18.91c0 .05-.3.52-.34.49a2.31 2.31 0 0 1 -.88-1.64.85.85 0 0 1 .46-.82.67.67 0 0 1 .85.41 1.75 1.75 0 0 1 -.09 1.56zm7.2.27c-.05 0-.46-.34-.49-.38a1.83 1.83 0 0 1 -.53-1.57.85.85 0 0 1 1.17-.57.83.83 0 0 1 .43.58 1.91 1.91 0 0 1 -.58 1.94zm5.94-.38c-1.43.9-3.6 1.45-5.21.63a2.74 2.74 0 0 0 .36-2.61 1.38 1.38 0 0 0 -2.65.18 2.59 2.59 0 0 0 1 2.6c-.09.1-.2.21-.32.32a4.09 4.09 0 0 1 -2.48 1 5 5 0 0 1 -3.56-1.24 3.47 3.47 0 0 0 .6-1.56c.18-1.3-1.26-2.66-2.3-1.34-.7.88-.34 1.92.33 2.78-1.88 1.62-5.69 1.73-6.91-.81-.21-.43-.87-.2-.87.24v6.81a4.87 4.87 0 0 0 -2.46-2.3 4.39 4.39 0 0 0 -5 1.47c-2.8 3.63.92 8.11 4.91 7.07v3.64a.39.39 0 0 0 -.11-.06c-7.62-2.33-11.51-9.61-11.16-17.32a16.07 16.07 0 0 1 4.43-10.8 10.92 10.92 0 0 1 2.2-1.69 23.75 23.75 0 0 1 2.65-1c1.2-.53 2.14-1.95 3.17-2.79a17.18 17.18 0 0 1 19.39-1.78 14.65 14.65 0 0 1 6.81 8.09c1.15 3.61.63 8.29-2.82 10.47z" fill="#003773"/><path d="m492.73 31.66s9.47 1.52 10.53 8.22c0 0 .27 1.79 1.47 1.8 0 0 8.69 21.3 1.69 35.1 0 0 6.81-7.77 5.91-20.64 0 0-1-9.51-6.4-15.26 0 0-1.73-1.84-1.67-2.94 0 0-2.42-6.88-11.53-6.28z" fill="#2da08f"/><path d="m526.7 161.58c.09-10.91-2.69-21.69-6.46-31.86a186.83 186.83 0 0 0 -13.11-27.6q-2.72-4.77-5.68-9.41c-1.08-1.68-2.45-3.32-3.38-5.09-.05-.09-.3-.32-.3-.42 0 .2 1.64-1 1.91-1.28a49.89 49.89 0 0 0 6.6-7.18 33 33 0 0 0 6.25-14.07 31.6 31.6 0 0 0 -3.91-20.57c-.88-1.56-1.95-2.94-3-4.41-.32-.47.06.27-.19-.45a12.65 12.65 0 0 0 -1.14-2.41c-3.87-6.27-11-6.31-17.5-5.12-4.38.8-9.22 1.58-13.65.78-2.38-.42-4.49-1.38-7-1.51-3.5-.18-7 .94-8.83 4.14-1.66 2.93-.63 5.77 1.81 8a26.65 26.65 0 0 0 20 6.92 25.34 25.34 0 0 0 8.26-2.36l-.68-.18c1.56 2.5 2.47 5.72 1.52 8.58-.21.61.76.88 1 .27 1-3.12.08-6.63-1.62-9.36a.52.52 0 0 0 -.68-.18 23.86 23.86 0 0 1 -20.92-.34c-3-1.49-7.93-4.33-8.49-7.89-.34-2.13 1.31-4.33 3-5.4a10.46 10.46 0 0 1 6.82-1.1 19.23 19.23 0 0 1 3.53.81 20.59 20.59 0 0 0 7.16.85c8.39-.29 20.21-5.44 25.59 3.9a28.32 28.32 0 0 0 1.79 3.36 33.43 33.43 0 0 1 4.44 8 29.33 29.33 0 0 1 1.46 16.75c-1.89 8.65-7.75 15.65-14.39 21.22a.51.51 0 0 0 -.07.61 176.84 176.84 0 0 1 9.76 15.59c6.39 11.27 12 23.14 15.6 35.61a79.94 79.94 0 0 1 3.5 22.77.5.5 0 0 0 1 0z" fill="#003773"/><path d="m442.53 333.42c17.81-11 39.45-16.22 52.44-33.87a92.81 92.81 0 0 0 15.4-33.71 1.5 1.5 0 0 0 -1.14-1.81 1.44 1.44 0 0 0 -1.77 1.09 90.11 90.11 0 0 1 -13.46 30.65c-7.85 11.43-19 17.85-31.19 23.69a227.74 227.74 0 0 0 -22.13 11.59 102.58 102.58 0 0 0 -23.46 19.95 75.51 75.51 0 0 0 -15.65 27.63h-.89l.64.84a1.82 1.82 0 0 1 -.07.25 1.51 1.51 0 0 0 1.45 1.91h.3l.64.83.23-.83h91.46a1.5 1.5 0 0 0 0-3h-90.62c5.55-17.57 18.91-33.54 37.82-45.21z" fill="#003773"/><path d="m277.75 42.33c0 1.85.06 3.69.2 5.53.13 1.64.76 3.68.62 5.32-.13 1.45-1.7 2.93-2.37 4.23a16.67 16.67 0 0 0 -1.45 3.84c-1.13 4.81.44 10.07 4.82 12.68a.5.5 0 0 0 .5-.86c-5.48-3.27-5.62-10.32-2.85-15.45 1-1.85 2.44-3 2.26-5.18-.28-3.39-.73-6.69-.73-10.11a.5.5 0 0 0 -1 0z" fill="#003773"/><path d="m524 132.29a105.31 105.31 0 0 1 4.78 13.71q.91 3.36 1.59 6.76c.2 1 .15 2.65 1.2 3.19s3.25-.46 4.4-.72a58.74 58.74 0 0 1 7.59-1.19 59.89 59.89 0 0 1 15.07.59c.63.11.9-.85.27-1a61.11 61.11 0 0 0 -12.74-.81 58.35 58.35 0 0 0 -6.06.59c-2.22.33-4.37 1-6.56 1.35-.51.08-1.33.36-1.77-.12-.18-.18-.18-.88-.22-1.11-.21-1.08-.43-2.15-.67-3.22-.47-2.14-1-4.27-1.63-6.37a106.56 106.56 0 0 0 -4.37-12.15c-.25-.59-1.11-.08-.86.5z" fill="#003773"/></svg>